<svg xmlns="http://www.w3.org/2000/svg"  viewBox="0 0 16 16" width="16px" height="16px" baseProfile="basic"><path fill="#e1ebf2" d="M6.303,15.412c-1.243,0-2.254-0.989-2.254-2.207v-3.137C4.042,9.974,4.042,9.795,4.051,9.612 c0.026-0.561,0.262-1.065,0.635-1.439c-0.644-1.052-0.807-2.37-0.561-3.5c0.429-1.961,2.043-3.278,4.017-3.278 c0.099,0,0.198,0.003,0.296,0.009C8.851,0.93,9.465,0.63,10.149,0.63c1.243,0,2.254,0.989,2.254,2.207v2.861 c0.026,0.443-0.003,0.766-0.012,0.858c-0.037,0.359-0.161,0.69-0.35,0.976c0.571,0.6,0.975,1.433,0.975,2.619 c0,2.592-2.307,3.95-4.587,3.953c-0.023,0.002-0.046,0.003-0.07,0.004C8.007,14.876,7.217,15.412,6.303,15.412z M8.565,10.049 L8.565,10.049L8.565,10.049z"/><path fill="#4e7ab5" d="M6.303,15.912c-1.519,0-2.754-1.214-2.754-2.706v-3.137C3.542,9.997,3.541,9.795,3.552,9.588 C3.575,9.052,3.761,8.54,4.079,8.111C3.543,7.057,3.377,5.759,3.637,4.565c0.486-2.227,2.322-3.744,4.596-3.67 c0.513-0.488,1.198-0.765,1.917-0.765c1.519,0,2.754,1.214,2.754,2.706v2.86c0.027,0.455-0.005,0.813-0.016,0.911 c-0.03,0.297-0.112,0.589-0.24,0.86c0.576,0.73,0.868,1.631,0.868,2.682c0,2.829-2.403,4.354-4.853,4.448 C8.169,15.405,7.275,15.912,6.303,15.912z M8.142,1.895c-1.733,0-3.151,1.159-3.528,2.884C4.38,5.85,4.567,7.02,5.112,7.91 l0.205,0.335L5.04,8.524C4.743,8.823,4.569,9.218,4.55,9.634c-0.007,0.161-0.008,0.316-0.002,0.4l0.001,3.172 c0,0.94,0.787,1.706,1.754,1.706c0.691,0,1.32-0.397,1.603-1.013l0.127-0.279l0.307-0.013c2.12-0.007,4.177-1.193,4.177-3.457 c0-0.938-0.273-1.683-0.837-2.274l-0.274-0.288l0.22-0.332c0.15-0.229,0.241-0.481,0.27-0.752 c0.006-0.058,0.034-0.359,0.011-0.778l-0.001-2.889c0-0.94-0.787-1.706-1.754-1.706c-0.514,0-1.001,0.219-1.336,0.602 L8.652,1.916L8.407,1.901C8.319,1.896,8.232,1.895,8.142,1.895z"/><path fill="#bf8d3c" d="M6.303,13.647c-0.249,0-0.451-0.197-0.451-0.441v-3.137C5.846,9.949,5.846,9.823,5.853,9.694 c0.011-0.236,0.21-0.421,0.45-0.421c0.004,0,0.007,0,0.01,0c0.246,0.005,0.441,0.202,0.441,0.441v0.334 c0.026,0.474,0.166,0.832,0.423,1.065c0.462,0.422,1.185,0.346,1.191,0.346c0.129-0.003,1.944-0.028,1.944-1.308 c0-0.953-0.614-1.193-1.889-1.604c-0.405-0.13-0.823-0.265-1.244-0.45c-1.16-0.509-1.529-1.954-1.289-3.056 C6.142,3.88,7.006,3.159,8.142,3.159c0.627,0,1.15,0.175,1.557,0.52V2.837c0-0.244,0.202-0.441,0.451-0.441 c0.249,0,0.451,0.197,0.451,0.441v2.915c0.024,0.348,0,0.596-0.003,0.621c-0.024,0.233-0.229,0.419-0.47,0.396 c-0.24-0.011-0.429-0.205-0.429-0.44V5.776c-0.03-0.403-0.139-0.957-0.482-1.327C8.961,4.176,8.61,4.042,8.142,4.042 c-1.005,0-1.293,0.827-1.371,1.183C6.605,5.983,6.855,6.988,7.546,7.291C7.924,7.458,8.32,7.584,8.703,7.709 c1.233,0.396,2.509,0.808,2.509,2.442c0,1.731-1.826,2.188-2.792,2.188c0.009,0.003-0.917,0.107-1.668-0.425v1.293 C6.753,13.45,6.552,13.647,6.303,13.647z"/></svg>